<svg xmlns="http://www.w3.org/2000/svg" xmlns:xlink="http://www.w3.org/1999/xlink" version="1.2" baseProfile="tiny" id="Слой_1" x="0px" y="0px" viewBox="0 0 201 43" xml:space="preserve" fill="#FFFFFF">
<g>
	<g>
		<g>
			<path d="M46.4903069,28.8416901l-3.0833397-4.7681885     c-0.5733871-0.8836651-1.0815887-1.4814663-1.5236588-1.7924557c-0.442543-0.3105145-1.0697365-0.4660091-1.8820534-0.4660091     h-1.2548561v7.0266533h-4.5531921V10.9161873h4.5531921v6.5250874h1.111454c0.8123131,0,1.4340553-0.1552582,1.8642731-0.4662476     c0.4302177-0.3102779,0.9320183-0.9078426,1.5056419-1.7924547l2.7965317-4.2663851h5.0549927l-4.0153618,6.0588398     c-0.9085503,1.410593-1.7566605,2.2828808-2.5455093,2.6173363c0.8123131,0.2631092,1.7208672,1.1595726,2.7247086,2.6886826     l4.3021698,6.5606441H46.4903069z"/>
			<path d="M61.2715302,10.7011967c2.8678741,0,5.2218628,1.0996037,7.0626755,3.298336l-2.7247086,2.939703     c-1.3148346-1.218832-2.7607422-1.828248-4.3379669-1.828248c-1.2671852,0-2.3544617,0.442544-3.2625389,1.3264456     c-0.9085541,0.8843765-1.3624763,2.0316238-1.3624763,3.4417419c0,1.410593,0.4539223,2.5578403,1.3624763,3.4415054     c0.9080772,0.884613,1.9953537,1.3264446,3.2625389,1.3264446c1.5772247,0,3.0231323-0.6091785,4.3379669-1.8280106     l2.7247086,2.939703c-1.8408127,2.1992073-4.1948013,3.2980995-7.0626755,3.2980995     c-2.5578384,0-4.7269402-0.8959904-6.5070648-2.688921c-1.780838-1.7924557-2.6709023-3.9551582-2.6709023-6.488821     c0-2.5331879,0.8900642-4.6966028,2.6709023-6.4890585C56.54459,11.5974245,58.7136917,10.7011967,61.2715302,10.7011967z"/>
			<path d="M88.3365784,28.8416901h-4.5531921V15.3259783h-7.8154907v13.5157118h-4.5531921V10.9161873h16.921875     V28.8416901z"/>
			<path d="M129.8422394,28.8416901h-4.5529633v-6.7758713h-7.8159637v6.7758713h-4.5529556V10.9161873h4.5529556     v6.740078h7.8159637v-6.740078h4.5529633V28.8416901z"/>
			<path d="M141.7588959,10.7011967c2.8681183,0,5.2218628,1.0996037,7.0626678,3.298336l-2.724472,2.939703     c-1.3145905-1.218832-2.760498-1.828248-4.3381958-1.828248c-1.2671814,0-2.3542175,0.442544-3.2625427,1.3264456     c-0.9083099,0.8843765-1.3619995,2.0316238-1.3619995,3.4417419c0,1.410593,0.4536896,2.5578403,1.3619995,3.4415054     c0.9083252,0.884613,1.9953613,1.3264446,3.2625427,1.3264446c1.5776978,0,3.0236053-0.6091785,4.3381958-1.8280106     l2.724472,2.939703c-1.8408051,2.1992073-4.1945496,3.2980995-7.0626678,3.2980995     c-2.5576019,0-4.7264557-0.8959904-6.5070648-2.688921c-1.7806091-1.7924557-2.6708984-3.9551582-2.6708984-6.488821     c0-2.5331879,0.8902893-4.6966028,2.6708984-6.4890585C137.0324402,11.5974245,139.2012939,10.7011967,141.7588959,10.7011967z"/>
			<path d="M168.1545563,28.8416901h-4.553421V18.2656803l-9.1779633,10.5760098h-2.9397125V10.9161873h4.5529633     v10.5764828l9.1779633-10.5764828h2.9401703V28.8416901z"/>
			<path d="M187.3733063,28.8416901H182.81987v-5.1981678h-1.8640289     c-0.7172699,0.0241756-1.2790375,0.1915226-1.684845,0.502039c-0.4067535,0.3109894-0.908783,0.8959904-1.5061188,1.7568989     l-2.0076752,2.93923h-4.9473877l2.2944946-3.4417419c0.8362579-1.2662392,1.4819489-2.0669422,1.9360962-2.4016342     c-1.1956024-0.3583965-2.1513214-1.0576496-2.8681183-2.0975189c-0.7172546-1.0396347-1.0756531-2.1565418-1.0756531-3.3521442     c0-0.8120804,0.1256256-1.5829163,0.3764038-2.3122721c0.2512665-0.7288809,0.6570587-1.4340591,1.2188416-2.1152964     c0.5612946-0.6812372,1.3804779-1.218832,2.4561462-1.6132574c1.0751801-0.3944254,2.3418884-0.5916376,3.8001251-0.5916376     h8.4251556V28.8416901z M182.81987,15.3259783h-4.3737488c-1.8640442,0-2.7965393,0.7412062-2.7965393,2.2226725     c0,1.5058804,0.9324951,2.2587032,2.7965393,2.2587032h4.3737488V15.3259783z"/>
		</g>
		<g>
			<path d="M76.6395645,40.3957138h-1.3604889v-2.1888695l-1.0114899,1.1861229l-1.0202408-1.1861229v2.1888695     h-1.3604889v-4.3602448h0.889595l1.4911346,1.7351952l1.4823837-1.7351952h0.889595V40.3957138z"/>
			<path d="M81.7147675,40.3957138h-0.8895874l-0.0871887-0.4271736     c-0.348732,0.3195839-0.7761688,0.479641-1.2817841,0.479641c-0.6105499,0-1.1119232-0.2151756-1.5043869-0.6455269     c-0.392189-0.4298248-0.5885544-0.9592857-0.5885544-1.5867996c0-0.6280403,0.1963654-1.1585617,0.5885544-1.5915642     c0.3924637-0.4330063,0.893837-0.6497726,1.5043869-0.6497726c0.5056152,0,0.9359665,0.1627083,1.2905273,0.4881248     l0.0784454-0.4271736h0.8895874V40.3957138z M78.9853058,38.8825874     c0.1743698,0.1658859,0.3778839,0.2485657,0.6102905,0.2485657c0.232666,0,0.4361801-0.0826797,0.6105499-0.2485657     c0.1743698-0.1653595,0.2615509-0.3879547,0.2615509-0.6667328c0-0.2793045-0.0871811-0.5029602-0.2615509-0.6714973     s-0.3778839-0.2528076-0.6105499-0.2528076c-0.2324066,0-0.4359207,0.0842705-0.6102905,0.2528076     c-0.1743622,0.1685371-0.2615509,0.3921928-0.2615509,0.6714973     C78.7237549,38.4946327,78.8109436,38.7172279,78.9853058,38.8825874z"/>
			<path d="M84.6705322,35.9835281c0.6977386,0,1.2701263,0.2671165,1.7179718,0.8018799l-0.8108902,0.8808479     c-0.2848663-0.2443275-0.5872269-0.3662262-0.9070816-0.3662262c-0.232399,0-0.4359131,0.0826797-0.6102829,0.2485657     c-0.1743698,0.1658897-0.2615509,0.3879547-0.2615509,0.6672592c0,0.2787781,0.0871811,0.5013733,0.2615509,0.6667328     c0.1743698,0.1658859,0.3778839,0.2485657,0.6102829,0.2485657c0.3198547,0,0.6222153-0.1218987,0.9070816-0.3662262     l0.8108902,0.8808479c-0.4478455,0.5347633-1.0202332,0.8024063-1.7179718,0.8024063     c-0.6219406,0-1.1495514-0.2183533-1.5825577-0.654007c-0.4332657-0.4361839-0.649765-0.9624672-0.649765-1.5783195     c0-0.6163788,0.2164993-1.142662,0.649765-1.5783157C83.5209808,36.201355,84.0485916,35.9835281,84.6705322,35.9835281z"/>
			<path d="M93.6435699,40.3957138h-6.5750885v-4.3602448h1.3604889v3.0437431h1.2470779v-3.0437431h1.3602219     v3.0437431h1.2470703v-3.0437431h1.3602295V40.3957138z"/>
			<path d="M96.7827072,37.3524971v3.0432167h-1.3602219v-3.0432167h-1.2295837v-1.317028h3.8106461v1.317028     H96.7827072z"/>
			<path d="M102.616333,40.3957138h-0.8895874l-0.0871887-0.4271736     c-0.348732,0.3195839-0.7761688,0.479641-1.2817841,0.479641c-0.6105499,0-1.1119232-0.2151756-1.5043793-0.6455269     c-0.3921967-0.4298248-0.588562-0.9592857-0.588562-1.5867996c0-0.6280403,0.1963654-1.1585617,0.588562-1.5915642     c0.3924561-0.4330063,0.8938293-0.6497726,1.5043793-0.6497726c0.5056152,0,0.9359665,0.1627083,1.2905273,0.4881248     l0.0784454-0.4271736h0.8895874V40.3957138z M99.8868713,38.8825874     c0.1743698,0.1658859,0.3778839,0.2485657,0.6102905,0.2485657c0.232666,0,0.4361801-0.0826797,0.6105499-0.2485657     c0.1743698-0.1653595,0.2615509-0.3879547,0.2615509-0.6667328c0-0.2793045-0.0871811-0.5029602-0.2615509-0.6714973     s-0.3778839-0.2528076-0.6105499-0.2528076c-0.2324066,0-0.4359207,0.0842705-0.6102905,0.2528076     c-0.1743622,0.1685371-0.2615509,0.3921928-0.2615509,0.6714973     C99.6253204,38.4946327,99.7125092,38.7172279,99.8868713,38.8825874z"/>
			<path d="M106.4269791,34.2917938h1.3604889c0,0.4822922-0.1279907,0.8485184-0.3837128,1.0986748     c-0.2559891,0.2496262-0.6977386,0.3747025-1.3255157,0.3747025h-0.3312378c-0.3140259,0-0.565506,0.0757904-0.7544479,0.2268372     s-0.2832794,0.3545647-0.2832794,0.6105499v0.139389c0.1102371-0.1568756,0.2671127-0.2819557,0.4708939-0.3752327     c0.2032547-0.0927505,0.424263-0.139389,0.6627579-0.139389c0.6102829,0,1.0928421,0.184967,1.4474106,0.5538406     c0.3545609,0.3694077,0.5318451,0.8474579,0.5318451,1.4346886c0,0.6450005-0.2035141,1.1829453-0.6102829,1.6132965     c-0.4070358,0.4298248-0.9505463,0.6450005-1.6307907,0.6450005c-0.6394348,0-1.1712799-0.2151756-1.5958023-0.6450005     c-0.424263-0.4303513-0.6365204-1.0085754-0.6365204-1.7357216v-0.9852562c0-0.7790909,0.2164993-1.3880501,0.649765-1.8268852     c0.4330063-0.4388313,1.053627-0.6582489,1.8616028-0.6582489c0.2151718,0,0.3633041-0.0233192,0.4449234-0.0699577     C106.3864365,34.5064392,106.4269791,34.4195213,106.4269791,34.2917938z M106.1871567,37.7144852     c-0.1772842-0.1600609-0.3792114-0.2400894-0.6060486-0.2400894c-0.2265701,0-0.4287643,0.0800285-0.606041,0.2400894     c-0.1772842,0.1595268-0.2657928,0.361454-0.2657928,0.6057777c0,0.2443275,0.0871811,0.4436035,0.2615509,0.5973015     c0.1743698,0.1542282,0.3778839,0.2310791,0.6102829,0.2310791c0.2268372,0,0.4287643-0.0768509,0.6060486-0.2310791     c0.1772842-0.153698,0.2660522-0.3529739,0.2660522-0.5973015     C106.4532089,38.0759392,106.3644409,37.874012,106.1871567,37.7144852z"/>
			<path d="M112.7489929,40.3957138h-1.3602295v-1.5608253h-1.4911346v1.5608253h-1.3604889v-4.3602448h1.3604889     v1.4823875h1.4911346v-1.4823875h1.3602295V40.3957138z"/>
			<path d="M115.0857239,37.2041016h0.749939c0.3778839,0,0.700386,0.0524673,0.9677658,0.1568756     c0.2673798,0.1049385,0.4624176,0.2443275,0.5843201,0.4186935c0.1221619,0.1743698,0.2064285,0.342907,0.253067,0.5056152     c0.0463791,0.1627083,0.0696945,0.3344231,0.0696945,0.5146217s-0.0233154,0.3519135-0.0696945,0.5146217     c-0.0466385,0.1627083-0.1309052,0.3312454-0.253067,0.5056114c-0.1219025,0.1743698-0.3169403,0.313755-0.5843201,0.4186935     c-0.2673798,0.1044083-0.5898819,0.1568794-0.9677658,0.1568794h-2.1104279v-4.3602448h1.3604889V37.2041016z      M115.0857239,39.122673h0.8980713c0.2498932,0,0.3749695-0.1075897,0.3749695-0.3227654     c0-0.2093468-0.1250763-0.313755-0.3749695-0.313755h-0.8980713V39.122673z M119.4369583,40.3957138h-1.3602219v-4.3602448     h1.3602219V40.3957138z"/>
			<path d="M124.5381317,40.3957138h-1.3602219v-2.1888695l-1.8748474,2.1888695h-0.889595v-4.3602448h1.3604965     v2.1888657l1.8748474-2.1888657h0.8893204V40.3957138z M123.5136566,35.3162689     c-0.276123,0.270298-0.6147842,0.4054451-1.0159912,0.4054451s-0.7411957-0.1351471-1.0202332-0.4054451     c-0.2790451-0.2702942-0.4184341-0.6089592-0.4184341-1.015995h0.9243088c0,0.139389,0.0492935,0.2570457,0.1481323,0.3529739     c0.0988464,0.0959282,0.2210083,0.1441574,0.3662262,0.1441574c0.1396561,0,0.2586365-0.0482292,0.3574829-0.1441574     c0.0988388-0.0959282,0.1483917-0.2135849,0.1483917-0.3529739h0.9243088     C123.9278488,34.7073097,123.7895203,35.0459747,123.5136566,35.3162689z"/>
			<path d="M128.1129303,36.0354691h2.2848053c1.0348053,0,1.5520782,0.4043846,1.5520782,1.2120895     c0,0.4478455-0.1889496,0.7414627-0.5668335,0.8808479c0.2498932,0.0524712,0.4417572,0.1611176,0.5755768,0.3270073     c0.1338196,0.1658859,0.2006073,0.3678131,0.2006073,0.606308c0,0.4881248-0.1380768,0.8326187-0.4141998,1.0329552     c-0.276123,0.2008667-0.725296,0.3010368-1.347229,0.3010368h-2.2848053V36.0354691z M129.4734192,37.1866112v0.4886513     h0.8546143c0.1743622-0.0116577,0.2615509-0.093277,0.2615509-0.2443237c0-0.1627083-0.095932-0.2443275-0.2877808-0.2443275     H129.4734192z M129.4734192,39.2445717h0.9680328c0.2382355,0,0.3574829-0.0985794,0.3574829-0.2962646     c0-0.1918602-0.1134186-0.290966-0.3402557-0.2967987h-0.98526V39.2445717z"/>
			<path d="M134.8014374,35.9745178c0.9068146,0,1.5375061,0.3752365,1.892334,1.1251755     c0.1044006,0.2151756,0.1611176,0.4679832,0.1698608,0.758419c0.0087433,0.290966-0.0275574,0.5405922-0.1089172,0.749939     h-2.738205c0,0.1860275,0.0771179,0.3328323,0.2310791,0.4404221s0.3415833,0.1611176,0.5625916,0.1611176     c0.4359131,0,0.8400421-0.0752602,1.2120972-0.2263069l0.7062073,0.7759094     c-0.6219482,0.4595032-1.2613831,0.6889877-1.9183044,0.6889877c-0.6452637,0-1.1728821-0.2135849-1.5828247-0.6412888     c-0.4096832-0.4271736-0.6147919-0.957695-0.6147919-1.5910378c0-0.639698,0.1976929-1.1728706,0.5930634-1.6005745     C133.6007385,36.1881065,134.132843,35.9745178,134.8014374,35.9745178z M134.8014374,37.2215919     c-0.2093506,0-0.3824005,0.0567093-0.5188599,0.1701279c-0.1367493,0.1134186-0.2080231,0.2337265-0.2135925,0.3619843h1.4561462     c0-0.0874481-0.0349731-0.1717186-0.10466-0.2533379C135.2866364,37.3148689,135.0804749,37.2215919,134.8014374,37.2215919z"/>
			<path d="M140.521637,34.2917938h1.3604889c0,0.4822922-0.1279907,0.8485184-0.3837128,1.0986748     c-0.2559814,0.2496262-0.6977386,0.3747025-1.3255157,0.3747025h-0.3312378c-0.3140259,0-0.565506,0.0757904-0.7544403,0.2268372     c-0.1889496,0.1510468-0.2832794,0.3545647-0.2832794,0.6105499v0.139389     c0.1102295-0.1568756,0.2671051-0.2819557,0.4708862-0.3752327c0.2032623-0.0927505,0.4242706-0.139389,0.6627655-0.139389     c0.6102753,0,1.0928345,0.184967,1.447403,0.5538406c0.3545685,0.3694077,0.5318451,0.8474579,0.5318451,1.4346886     c0,0.6450005-0.2035065,1.1829453-0.6102753,1.6132965c-0.4070435,0.4298248-0.9505463,0.6450005-1.6307983,0.6450005     c-0.6394348,0-1.1712799-0.2151756-1.5957947-0.6450005c-0.4242706-0.4303513-0.6365204-1.0085754-0.6365204-1.7357216     v-0.9852562c0-0.7790909,0.2164917-1.3880501,0.649765-1.8268852c0.4329987-0.4388313,1.0536194-0.6582489,1.8616028-0.6582489     c0.2151642,0,0.3632965-0.0233192,0.4449158-0.0699577C140.4810944,34.5064392,140.521637,34.4195213,140.521637,34.2917938z      M140.2818146,37.7144852c-0.1772766-0.1600609-0.3792114-0.2400894-0.6060486-0.2400894     c-0.2265625,0-0.4287567,0.0800285-0.6060333,0.2400894c-0.1772919,0.1595268-0.2657928,0.361454-0.2657928,0.6057777     c0,0.2443275,0.0871735,0.4436035,0.2615509,0.5973015c0.1743622,0.1542282,0.3778839,0.2310791,0.6102753,0.2310791     c0.2268372,0,0.428772-0.0768509,0.6060486-0.2310791c0.1772919-0.153698,0.2660522-0.3529739,0.2660522-0.5973015     C140.5478668,38.0759392,140.4591064,37.874012,140.2818146,37.7144852z"/>
			<path d="M144.5326233,38.3027763h-2.1626434v-0.8283806h2.1626434V38.3027763z"/>
			<path d="M149.4681702,40.3957138h-1.3602295v-3.0432167h-1.4911346v3.0432167h-1.3604889v-4.3602448h4.211853     V40.3957138z"/>
			<path d="M152.7469635,35.9835281c0.6102905,0,1.1116638,0.2146492,1.5041199,0.6450005     c0.3924561,0.4303551,0.588562,0.9592857,0.588562,1.587326c0,0.6275139-0.196106,1.1580353-0.588562,1.5910378     c-0.3924561,0.4335327-0.8938293,0.6497688-1.5041199,0.6497688c-0.3315125,0-0.6309509-0.081089-0.8983307-0.2443237V42     h-1.3602295v-5.9645309h0.8980713l0.0787048,0.4271736C151.8139191,36.143055,152.2410889,35.9835281,152.7469635,35.9835281z      M152.6073151,37.3000298c-0.2265778,0-0.4287567,0.0826797-0.6060486,0.2485657     c-0.1772766,0.1658897-0.2657928,0.3879547-0.2657928,0.6672592c0,0.2787781,0.0885162,0.502964,0.2657928,0.6715012     c0.1772919,0.1685371,0.3794708,0.2528076,0.6060486,0.2528076c0.2324066,0,0.4361877-0.0842705,0.6105499-0.2528076     s0.2615509-0.3927231,0.2615509-0.6715012c0-0.2793045-0.0871887-0.5013695-0.2615509-0.6672592     C153.0435028,37.3827095,152.8397217,37.3000298,152.6073151,37.3000298z"/>
			<path d="M157.5338593,35.9745178c0.6222076,0,1.1511383,0.2194176,1.5870667,0.6582527     c0.4361725,0.4393616,0.654007,0.9667053,0.654007,1.5830841c0,0.6158524-0.2178345,1.1421356-0.654007,1.5783195     c-0.4359283,0.4356537-0.964859,0.654007-1.5870667,0.654007c-0.6219482,0-1.1495514-0.2183533-1.5825653-0.654007     c-0.4332581-0.4361839-0.649765-0.9624672-0.649765-1.5783195c0-0.6222076,0.2180939-1.1511421,0.654007-1.587326     C156.3917236,36.1923447,156.9177399,35.9745178,157.5338593,35.9745178z M158.1444092,37.5443573     c-0.1743622-0.1685371-0.3778839-0.2528076-0.6105499-0.2528076c-0.2324066,0-0.4359131,0.0842705-0.6102905,0.2528076     c-0.1743622,0.1685371-0.2615509,0.3921928-0.2615509,0.6714973c0,0.2787781,0.0871887,0.5013733,0.2615509,0.6667328     c0.1743774,0.1658859,0.3778839,0.2485657,0.6102905,0.2485657c0.232666,0,0.4361877-0.0826797,0.6105499-0.2485657     c0.1743622-0.1653595,0.2615509-0.3879547,0.2615509-0.6667328     C158.4059601,37.9365501,158.3187714,37.7128944,158.1444092,37.5443573z"/>
			<path d="M165.1551514,41.1196823h-1.3602295v-0.7239685h-2.3892059v0.7239685h-1.3604889v-2.0404701h0.6977386     l1.4126892-3.0437431h0.889328l1.4039459,3.0437431h0.7062225V41.1196823z M162.591568,38.0065079l-0.4621429,1.0727043     h0.9243011L162.591568,38.0065079z"/>
			<path d="M169.6722717,40.3957138h-0.8896027l-0.0871735-0.4271736     c-0.3487396,0.3195839-0.7761841,0.479641-1.2817841,0.479641c-0.6105499,0-1.1119232-0.2151756-1.5043945-0.6455269     c-0.3921814-0.4298248-0.5885468-0.9592857-0.5885468-1.5867996c0-0.6280403,0.1963654-1.1585617,0.5885468-1.5915642     c0.3924713-0.4330063,0.8938446-0.6497726,1.5043945-0.6497726c0.5056,0,0.9359589,0.1627083,1.2905273,0.4881248     l0.0784302-0.4271736h0.8896027V40.3957138z M166.9428101,38.8825874     c0.1743622,0.1658859,0.3778839,0.2485657,0.6102905,0.2485657c0.232666,0,0.4361725-0.0826797,0.6105499-0.2485657     c0.1743622-0.1653595,0.2615509-0.3879547,0.2615509-0.6667328c0-0.2793045-0.0871887-0.5029602-0.2615509-0.6714973     c-0.1743774-0.1685371-0.3778839-0.2528076-0.6105499-0.2528076c-0.2324066,0-0.4359283,0.0842705-0.6102905,0.2528076     s-0.2615509,0.3921928-0.2615509,0.6714973C166.6812592,38.4946327,166.7684479,38.7172279,166.9428101,38.8825874z"/>
			<path d="M173.5788422,40.3957138l-0.7674255-1.1861229     c-0.0988464-0.1510468-0.191864-0.2538643-0.2790527-0.3095131c-0.0871735-0.0551224-0.2064209-0.0826797-0.3574677-0.0826797     h-0.1134186v1.5783157h-1.3602295v-4.3602448h1.3602295v1.4648972h0.1046753     c0.1513062,0,0.2702942-0.0270309,0.3574677-0.0826797c0.0874481-0.0551186,0.1802063-0.1552849,0.2790527-0.301033     l0.6977234-1.0811844h1.5086212l-1.0552063,1.6048164c-0.0697021,0.1044083-0.15979,0.2104073-0.2702942,0.3179932     c-0.1105042,0.1075897-0.2006073,0.1759567-0.2702942,0.2051086c0.0755157,0.0233192,0.1669464,0.0869179,0.2747955,0.1918564     c0.1073303,0.1044083,0.1990051,0.211998,0.2745361,0.3227654l1.1249084,1.7177048H173.5788422z"/>
			<path d="M182.1246948,40.3957138h-6.5750732v-4.3602448h1.3604889v3.0437431h1.2470703v-3.0437431h1.3602142     v3.0437431h1.2470856v-3.0437431h1.3602142V40.3957138z"/>
			<path d="M187.3215332,40.3957138h-1.3602142v-1.5608253h-1.4911346v1.5608253h-1.3604889v-4.3602448h1.3604889     v1.4823875h1.4911346v-1.4823875h1.3602142V40.3957138z"/>
		</g>
		<g>
			<path d="M104.8780136,10.9161873v1.0603809c-1.367485-0.8092251-2.962059-1.2753086-4.6661835-1.2753086     c-5.0687637,0-9.1778259,4.1090412-9.1778259,9.1778278c0,5.0687695,4.1090622,9.1778297,9.1778259,9.1778297     c1.7041245,0,3.2986984-0.4660835,4.6661835-1.2753086v1.0600834h4.5529633V10.9161873H104.8780136z M100.2118301,24.7753448     c-2.6998672,0-4.8962936-2.1964226-4.8962936-4.8962936s2.1964035-4.8962574,4.8962784-4.8962574     c2.6998672,0.0000191,4.8962936,2.1964417,4.8963089,4.8962936     C105.1081238,22.5789585,102.911705,24.7753639,100.2118301,24.7753448z"/>
		</g>
	</g>
	<g>
		<polygon fill="#D0502E" points="34.9875412,1 35.1055489,3.4710643 36.5381432,5.48804 34.0669174,5.6059599     32.0498505,7.0383964 31.9318447,4.5673323 30.4992485,2.5503569 32.9704742,2.4324367   "/>
		<g>
			<path d="M27.6228352,17.7584457l3.6639652-9.2082205l-3.559412,4.4574966     c-1.6150627-1.4218397-3.7329807-2.2859783-6.0538692-2.2859812c-2.8321991-0.0000029-5.3637276,1.2848711-7.0454493,3.3027973     l2.956912,3.191637c0.8739929-1.3320436,2.3797836-2.2141218,4.0885258-2.2141199     c1.3088074,0.000001,2.4981441,0.5181017,3.3763714,1.358737l-3.324501,4.1633167l4.7932148,0.0000038     c-0.3121681,2.3962307-2.365139,4.2532234-4.8450909,4.2532196c-1.7094936-0.0000019-3.215847-0.882843-4.0896587-2.2158623     l-2.9571466,3.1918449c1.6817198,2.0188427,4.21387,3.304388,7.0468111,3.3043919     c5.0633373,0.0000057,9.1679897-4.1046391,9.1679916-9.1679745c0.0000019-1.5673981-0.3942108-3.042263-1.0878563-4.3323593     L27.6228352,17.7584457z"/>
		</g>
	</g>
</g>
</svg>